<svg xmlns="http://www.w3.org/2000/svg" xmlns:xlink="http://www.w3.org/1999/xlink" width="48" zoomAndPan="magnify" viewBox="0 0 36 36.000001" height="48" preserveAspectRatio="xMidYMid meet" version="1.0"><defs><g/><clipPath id="a8cf1bf577"><path d="M 0.488281 0 L 35.511719 0 L 35.511719 35.027344 L 0.488281 35.027344 Z M 0.488281 0 " clip-rule="nonzero"/></clipPath><clipPath id="2b879f7cdf"><path d="M 9.398438 21 L 18 21 L 18 23.542969 L 9.398438 23.542969 Z M 9.398438 21 " clip-rule="nonzero"/></clipPath><clipPath id="194742653c"><path d="M 18 21 L 26.914062 21 L 26.914062 23.542969 L 18 23.542969 Z M 18 21 " clip-rule="nonzero"/></clipPath><clipPath id="c42077a51a"><path d="M 13 14.058594 L 16 14.058594 L 16 17 L 13 17 Z M 13 14.058594 " clip-rule="nonzero"/></clipPath><clipPath id="733330cf60"><path d="M 21 14.058594 L 23 14.058594 L 23 16 L 21 16 Z M 21 14.058594 " clip-rule="nonzero"/></clipPath><clipPath id="3e0b05d0af"><path d="M 6.402344 10 L 29.753906 10 L 29.753906 22.074219 L 6.402344 22.074219 Z M 6.402344 10 " clip-rule="nonzero"/></clipPath><clipPath id="c019f3bf3a"><path d="M 0.191406 0.320312 L 2 0.320312 L 2 1.722656 L 0.191406 1.722656 Z M 0.191406 0.320312 " clip-rule="nonzero"/></clipPath><clipPath id="81dc018b74"><path d="M 1 0.320312 L 2 0.320312 L 2 1.722656 L 1 1.722656 Z M 1 0.320312 " clip-rule="nonzero"/></clipPath><clipPath id="c023ffe96a"><path d="M 1 1 L 2 1 L 2 1.722656 L 1 1.722656 Z M 1 1 " clip-rule="nonzero"/></clipPath><clipPath id="33fbd56050"><path d="M 2 0.320312 L 3 0.320312 L 3 1.722656 L 2 1.722656 Z M 2 0.320312 " clip-rule="nonzero"/></clipPath><clipPath id="dc6913fd4d"><path d="M 3 0.320312 L 4 0.320312 L 4 1.722656 L 3 1.722656 Z M 3 0.320312 " clip-rule="nonzero"/></clipPath><clipPath id="30953b8bf5"><path d="M 4 0.320312 L 5 0.320312 L 5 1.722656 L 4 1.722656 Z M 4 0.320312 " clip-rule="nonzero"/></clipPath><clipPath id="cdd19deedb"><path d="M 4 0.320312 L 6 0.320312 L 6 1.722656 L 4 1.722656 Z M 4 0.320312 " clip-rule="nonzero"/></clipPath><clipPath id="9d9e120305"><path d="M 5 0.320312 L 7 0.320312 L 7 1.722656 L 5 1.722656 Z M 5 0.320312 " clip-rule="nonzero"/></clipPath><clipPath id="80d3237aba"><path d="M 6 0.320312 L 8 0.320312 L 8 1.722656 L 6 1.722656 Z M 6 0.320312 " clip-rule="nonzero"/></clipPath><clipPath id="493ec93d34"><path d="M 7 0.320312 L 8 0.320312 L 8 1.722656 L 7 1.722656 Z M 7 0.320312 " clip-rule="nonzero"/></clipPath><clipPath id="2eedfe02fc"><path d="M 8 0.320312 L 9 0.320312 L 9 1.722656 L 8 1.722656 Z M 8 0.320312 " clip-rule="nonzero"/></clipPath><clipPath id="5f59758ca6"><path d="M 8 0.320312 L 10 0.320312 L 10 1.722656 L 8 1.722656 Z M 8 0.320312 " clip-rule="nonzero"/></clipPath><clipPath id="0465942aeb"><path d="M 9 0.320312 L 11 0.320312 L 11 1.722656 L 9 1.722656 Z M 9 0.320312 " clip-rule="nonzero"/></clipPath><clipPath id="6a7661ac81"><path d="M 10 1 L 11 1 L 11 1.722656 L 10 1.722656 Z M 10 1 " clip-rule="nonzero"/></clipPath><clipPath id="a34addcbb1"><path d="M 11 0.320312 L 12 0.320312 L 12 1.722656 L 11 1.722656 Z M 11 0.320312 " clip-rule="nonzero"/></clipPath><clipPath id="bae687ca41"><path d="M 11 0.320312 L 13 0.320312 L 13 1.722656 L 11 1.722656 Z M 11 0.320312 " clip-rule="nonzero"/></clipPath><clipPath id="6750fc8969"><path d="M 12 0.320312 L 14 0.320312 L 14 1.722656 L 12 1.722656 Z M 12 0.320312 " clip-rule="nonzero"/></clipPath><clipPath id="5c012a7ab3"><path d="M 13 0.320312 L 14 0.320312 L 14 1.722656 L 13 1.722656 Z M 13 0.320312 " clip-rule="nonzero"/></clipPath><clipPath id="9c6158c0af"><path d="M 14 0.320312 L 15 0.320312 L 15 1.722656 L 14 1.722656 Z M 14 0.320312 " clip-rule="nonzero"/></clipPath><clipPath id="850a13988c"><path d="M 14 0.320312 L 16 0.320312 L 16 1.722656 L 14 1.722656 Z M 14 0.320312 " clip-rule="nonzero"/></clipPath><clipPath id="d92eb2544a"><path d="M 15 0.320312 L 17 0.320312 L 17 1.722656 L 15 1.722656 Z M 15 0.320312 " clip-rule="nonzero"/></clipPath><clipPath id="eca05af22a"><path d="M 16 0.320312 L 18 0.320312 L 18 1.722656 L 16 1.722656 Z M 16 0.320312 " clip-rule="nonzero"/></clipPath><clipPath id="e4f65f1960"><path d="M 17 0.320312 L 18 0.320312 L 18 1.722656 L 17 1.722656 Z M 17 0.320312 " clip-rule="nonzero"/></clipPath><clipPath id="26d05544e3"><path d="M 18 0.320312 L 19 0.320312 L 19 1.722656 L 18 1.722656 Z M 18 0.320312 " clip-rule="nonzero"/></clipPath><clipPath id="6bc153b46e"><path d="M 19 0.320312 L 20 0.320312 L 20 1.722656 L 19 1.722656 Z M 19 0.320312 " clip-rule="nonzero"/></clipPath><clipPath id="544e20788f"><rect x="0" width="21" y="0" height="2"/></clipPath><clipPath id="9cd05da561"><path d="M 0.0898438 0.0507812 L 4 0.0507812 L 4 4 L 0.0898438 4 Z M 0.0898438 0.0507812 " clip-rule="nonzero"/></clipPath><clipPath id="ae3adbc125"><path d="M 13 0.0507812 L 16 0.0507812 L 16 4 L 13 4 Z M 13 0.0507812 " clip-rule="nonzero"/></clipPath><clipPath id="7f4c239182"><path d="M 18 0.0507812 L 20 0.0507812 L 20 4 L 18 4 Z M 18 0.0507812 " clip-rule="nonzero"/></clipPath><clipPath id="85f6e7679f"><path d="M 21 1 L 23.910156 1 L 23.910156 4 L 21 4 Z M 21 1 " clip-rule="nonzero"/></clipPath><clipPath id="49195e66b4"><rect x="0" width="24" y="0" height="5"/></clipPath><clipPath id="00980ccc42"><path d="M 11.679688 0.613281 L 13.140625 0.613281 L 13.140625 2 L 11.679688 2 Z M 11.679688 0.613281 " clip-rule="nonzero"/></clipPath><clipPath id="0b918023cd"><path d="M 8.367188 2.746094 L 10.945312 2.746094 L 10.945312 5.585938 L 8.367188 5.585938 Z M 8.367188 2.746094 " clip-rule="nonzero"/></clipPath><clipPath id="db6db47a8e"><path d="M 6.730469 7 L 8 7 L 8 7.285156 L 6.730469 7.285156 Z M 6.730469 7 " clip-rule="nonzero"/></clipPath><clipPath id="859357cf68"><path d="M 6.730469 5.90625 L 8 5.90625 L 8 7.285156 L 6.730469 7.285156 Z M 6.730469 5.90625 " clip-rule="nonzero"/></clipPath><clipPath id="cacf803446"><path d="M 8 7 L 8.277344 7 L 8.277344 7.285156 L 8 7.285156 Z M 8 7 " clip-rule="nonzero"/></clipPath><clipPath id="f243ecbef2"><path d="M 6.730469 5.90625 L 8.277344 5.90625 L 8.277344 7.285156 L 6.730469 7.285156 Z M 6.730469 5.90625 " clip-rule="nonzero"/></clipPath><clipPath id="c2b023ec2a"><path d="M 3.402344 1 L 5.8125 1 L 5.8125 3 L 3.402344 3 Z M 3.402344 1 " clip-rule="nonzero"/></clipPath><clipPath id="6f1d734d30"><rect x="0" width="16" y="0" height="10"/></clipPath><clipPath id="df763ab4d8"><path d="M 12.113281 0.347656 L 13.578125 0.347656 L 13.578125 1.894531 L 12.113281 1.894531 Z M 12.113281 0.347656 " clip-rule="nonzero"/></clipPath><clipPath id="eff193cb47"><path d="M 8.800781 2.480469 L 11.382812 2.480469 L 11.382812 5.320312 L 8.800781 5.320312 Z M 8.800781 2.480469 " clip-rule="nonzero"/></clipPath><clipPath id="39abde7e36"><path d="M 7.167969 7 L 8.714844 7 L 8.714844 7.019531 L 7.167969 7.019531 Z M 7.167969 7 " clip-rule="nonzero"/></clipPath><clipPath id="f22db96dbb"><path d="M 7.167969 5.640625 L 8 5.640625 L 8 7.019531 L 7.167969 7.019531 Z M 7.167969 5.640625 " clip-rule="nonzero"/></clipPath><clipPath id="c610451827"><path d="M 8 7 L 8.714844 7 L 8.714844 7.019531 L 8 7.019531 Z M 8 7 " clip-rule="nonzero"/></clipPath><clipPath id="ff634beb41"><path d="M 7.167969 5.640625 L 8.714844 5.640625 L 8.714844 7 L 7.167969 7 Z M 7.167969 5.640625 " clip-rule="nonzero"/></clipPath><clipPath id="60d24de5e3"><path d="M 4 0.605469 L 6 0.605469 L 6 3 L 4 3 Z M 4 0.605469 " clip-rule="nonzero"/></clipPath><clipPath id="b0516ecde2"><rect x="0" width="17" y="0" height="10"/></clipPath></defs><g clip-path="url(#a8cf1bf577)"><path fill="#ffffff" d="M 0.488281 0 L 35.511719 0 L 35.511719 35.027344 L 0.488281 35.027344 Z M 0.488281 0 " fill-opacity="1" fill-rule="nonzero"/><path fill="#ffffff" d="M 0.488281 0 L 35.511719 0 L 35.511719 35.027344 L 0.488281 35.027344 Z M 0.488281 0 " fill-opacity="1" fill-rule="nonzero"/></g><g clip-path="url(#2b879f7cdf)"><path fill="#e57dff" d="M 17.855469 23.367188 C 14.898438 22.09375 11.507812 22.347656 9.417969 23.726562 L 9.789062 22.707031 C 10.988281 21.949219 14.398438 20.914062 17.855469 23.367188 " fill-opacity="1" fill-rule="nonzero"/></g><path fill="#d0c3f1" d="M 10.609375 20.652344 L 10.277344 21.515625 C 12.492188 20.863281 15.410156 21.234375 17.820312 22.726562 C 15.191406 20.203125 12.21875 20.230469 10.609375 20.652344 " fill-opacity="1" fill-rule="nonzero"/><path fill="#d0c3f1" d="M 11.191406 19.15625 L 10.929688 19.832031 C 12.914062 19.460938 15.441406 20.097656 17.378906 21.6875 C 15.289062 19.0625 12.523438 18.898438 11.191406 19.15625 " fill-opacity="1" fill-rule="nonzero"/><g clip-path="url(#194742653c)"><path fill="#e57dff" d="M 18.136719 23.367188 C 21.09375 22.09375 24.484375 22.347656 26.578125 23.726562 L 26.203125 22.707031 C 25.007812 21.949219 21.59375 20.914062 18.136719 23.367188 " fill-opacity="1" fill-rule="nonzero"/></g><path fill="#d0c3f1" d="M 25.382812 20.652344 L 25.71875 21.515625 C 23.503906 20.863281 20.585938 21.234375 18.175781 22.726562 C 20.800781 20.203125 23.773438 20.230469 25.382812 20.652344 " fill-opacity="1" fill-rule="nonzero"/><path fill="#d0c3f1" d="M 24.800781 19.15625 L 25.0625 19.832031 C 23.082031 19.460938 20.550781 20.097656 18.617188 21.6875 C 20.707031 19.0625 23.472656 18.898438 24.800781 19.15625 " fill-opacity="1" fill-rule="nonzero"/><path fill="#e57dff" d="M 19.316406 16.011719 L 19.699219 16.789062 L 20.5625 16.914062 L 19.9375 17.523438 L 20.085938 18.378906 L 19.316406 17.976562 L 18.546875 18.378906 L 18.691406 17.523438 L 18.070312 16.914062 L 18.929688 16.789062 L 19.316406 16.011719 " fill-opacity="1" fill-rule="nonzero"/><g clip-path="url(#c42077a51a)"><path fill="#e57dff" d="M 14.441406 14.863281 L 14.691406 15.371094 L 15.25 15.449219 L 14.847656 15.84375 L 14.941406 16.398438 L 14.441406 16.136719 L 13.945312 16.398438 L 14.039062 15.84375 L 13.636719 15.449219 L 14.195312 15.371094 L 14.441406 14.863281 " fill-opacity="1" fill-rule="nonzero"/></g><path fill="#e57dff" d="M 17.378906 19.066406 L 17.578125 19.472656 L 18.027344 19.539062 L 17.703125 19.855469 L 17.777344 20.300781 L 17.378906 20.089844 L 16.976562 20.300781 L 17.054688 19.855469 L 16.730469 19.539062 L 17.175781 19.472656 L 17.378906 19.066406 " fill-opacity="1" fill-rule="nonzero"/><g clip-path="url(#733330cf60)"><path fill="#e57dff" d="M 21.945312 14.058594 L 22.144531 14.464844 L 22.59375 14.527344 L 22.269531 14.84375 L 22.347656 15.289062 L 21.945312 15.082031 L 21.546875 15.289062 L 21.621094 14.84375 L 21.296875 14.527344 L 21.746094 14.464844 L 21.945312 14.058594 " fill-opacity="1" fill-rule="nonzero"/></g><g clip-path="url(#3e0b05d0af)"><path fill="#ab1d79" d="M 29.589844 22.117188 L 29.375 22.117188 C 29.375 15.84375 24.269531 10.738281 17.996094 10.738281 C 11.722656 10.738281 6.617188 15.84375 6.617188 22.117188 L 6.40625 22.117188 C 6.40625 21.453125 6.464844 20.796875 6.578125 20.140625 C 6.691406 19.488281 6.859375 18.847656 7.082031 18.222656 C 7.304688 17.597656 7.582031 16.996094 7.90625 16.421875 C 8.234375 15.84375 8.605469 15.296875 9.027344 14.78125 C 9.449219 14.269531 9.910156 13.796875 10.410156 13.359375 C 10.910156 12.925781 11.445312 12.539062 12.015625 12.195312 C 12.582031 11.851562 13.175781 11.5625 13.796875 11.320312 C 14.414062 11.078125 15.046875 10.894531 15.699219 10.761719 C 16.347656 10.628906 17.003906 10.554688 17.667969 10.535156 C 18.332031 10.515625 18.992188 10.554688 19.648438 10.648438 C 20.304688 10.742188 20.949219 10.894531 21.582031 11.097656 C 22.210938 11.304688 22.820312 11.558594 23.410156 11.871094 C 23.996094 12.179688 24.550781 12.535156 25.078125 12.941406 C 25.601562 13.347656 26.089844 13.792969 26.539062 14.28125 C 26.988281 14.769531 27.390625 15.292969 27.75 15.851562 C 28.109375 16.410156 28.417969 16.996094 28.679688 17.605469 C 29.289062 19.046875 29.589844 20.550781 29.589844 22.117188 Z M 29.589844 22.117188 " fill-opacity="1" fill-rule="nonzero"/></g><g transform="matrix(1, 0, 0, 1, 8, 27)"><g clip-path="url(#544e20788f)"><g clip-path="url(#c019f3bf3a)"><g fill="#ab1d79" fill-opacity="1"><g transform="translate(0.297247, 1.471093)"><g><path d="M 0.59375 0 L 0.53125 -0.15625 L 0.21875 -0.15625 L 0.140625 0 L 0.046875 0 L 0.3125 -0.65625 L 0.4375 -0.65625 L 0.71875 0 Z M 0.328125 -0.40625 L 0.265625 -0.265625 L 0.5 -0.265625 L 0.421875 -0.421875 C 0.410156 -0.441406 0.398438 -0.460938 0.390625 -0.484375 C 0.390625 -0.503906 0.382812 -0.519531 0.375 -0.53125 C 0.363281 -0.519531 0.351562 -0.5 0.34375 -0.46875 C 0.332031 -0.445312 0.328125 -0.425781 0.328125 -0.40625 Z M 0.328125 -0.40625 "/></g></g></g></g><g clip-path="url(#81dc018b74)"><g fill="#ab1d79" fill-opacity="1"><g transform="translate(1.142499, 1.471093)"><g><path d="M 0.484375 0 L 0.109375 0 L 0.109375 -0.109375 L 0.25 -0.109375 L 0.25 -0.546875 L 0.109375 -0.546875 L 0.109375 -0.65625 L 0.484375 -0.65625 L 0.484375 -0.546875 L 0.34375 -0.546875 L 0.34375 -0.109375 L 0.484375 -0.109375 Z M 0.484375 0 "/></g></g></g></g><g clip-path="url(#c023ffe96a)"><g fill="#ab1d79" fill-opacity="1"><g transform="translate(1.8122, 1.471093)"><g/></g></g></g><g clip-path="url(#33fbd56050)"><g fill="#ab1d79" fill-opacity="1"><g transform="translate(2.234825, 1.471093)"><g><path d="M 0.4375 -0.65625 C 0.476562 -0.65625 0.515625 -0.648438 0.546875 -0.640625 C 0.585938 -0.628906 0.617188 -0.613281 0.640625 -0.59375 C 0.671875 -0.582031 0.695312 -0.566406 0.71875 -0.546875 L 0.640625 -0.484375 C 0.609375 -0.503906 0.578125 -0.519531 0.546875 -0.53125 C 0.515625 -0.539062 0.476562 -0.546875 0.4375 -0.546875 C 0.382812 -0.546875 0.335938 -0.535156 0.296875 -0.515625 C 0.265625 -0.503906 0.234375 -0.476562 0.203125 -0.4375 C 0.179688 -0.40625 0.171875 -0.363281 0.171875 -0.3125 C 0.171875 -0.269531 0.179688 -0.226562 0.203125 -0.1875 C 0.234375 -0.15625 0.265625 -0.128906 0.296875 -0.109375 C 0.335938 -0.0976562 0.382812 -0.09375 0.4375 -0.09375 C 0.476562 -0.09375 0.515625 -0.0976562 0.546875 -0.109375 C 0.578125 -0.117188 0.601562 -0.132812 0.625 -0.15625 C 0.644531 -0.175781 0.65625 -0.203125 0.65625 -0.234375 L 0.4375 -0.234375 L 0.4375 -0.328125 L 0.75 -0.328125 C 0.75 -0.316406 0.75 -0.304688 0.75 -0.296875 C 0.75 -0.296875 0.75 -0.289062 0.75 -0.28125 C 0.75 -0.25 0.742188 -0.210938 0.734375 -0.171875 C 0.722656 -0.140625 0.710938 -0.117188 0.703125 -0.109375 C 0.671875 -0.0664062 0.628906 -0.0351562 0.578125 -0.015625 C 0.535156 0.00390625 0.488281 0.015625 0.4375 0.015625 C 0.382812 0.015625 0.335938 0.00390625 0.296875 -0.015625 C 0.253906 -0.0351562 0.210938 -0.0546875 0.171875 -0.078125 C 0.140625 -0.109375 0.113281 -0.144531 0.09375 -0.1875 C 0.0820312 -0.226562 0.078125 -0.269531 0.078125 -0.3125 C 0.078125 -0.363281 0.0820312 -0.410156 0.09375 -0.453125 C 0.113281 -0.492188 0.140625 -0.53125 0.171875 -0.5625 C 0.210938 -0.59375 0.253906 -0.613281 0.296875 -0.625 C 0.335938 -0.644531 0.382812 -0.65625 0.4375 -0.65625 Z M 0.4375 -0.65625 "/></g></g></g></g><g clip-path="url(#dc6913fd4d)"><g fill="#ab1d79" fill-opacity="1"><g transform="translate(3.149741, 1.471093)"><g><path d="M 0.109375 -0.65625 L 0.578125 -0.65625 L 0.578125 -0.546875 L 0.21875 -0.546875 L 0.21875 -0.375 L 0.53125 -0.375 L 0.53125 -0.296875 L 0.21875 -0.296875 L 0.21875 -0.109375 L 0.578125 -0.109375 L 0.578125 0 L 0.109375 0 Z M 0.109375 -0.65625 "/></g></g></g></g><g clip-path="url(#30953b8bf5)"><g fill="#ab1d79" fill-opacity="1"><g transform="translate(3.921615, 1.471093)"><g><path d="M 0.640625 -0.65625 L 0.734375 -0.65625 L 0.734375 0 L 0.640625 0 L 0.203125 -0.515625 C 0.210938 -0.472656 0.21875 -0.429688 0.21875 -0.390625 C 0.21875 -0.347656 0.21875 -0.3125 0.21875 -0.28125 L 0.21875 0 L 0.109375 0 L 0.109375 -0.65625 L 0.21875 -0.65625 L 0.65625 -0.125 C 0.644531 -0.15625 0.640625 -0.191406 0.640625 -0.234375 C 0.640625 -0.273438 0.640625 -0.3125 0.640625 -0.34375 C 0.640625 -0.375 0.640625 -0.40625 0.640625 -0.4375 Z M 0.640625 -0.65625 "/></g></g></g></g><g clip-path="url(#cdd19deedb)"><g fill="#ab1d79" fill-opacity="1"><g transform="translate(4.866254, 1.471093)"><g><path d="M 0.109375 -0.65625 L 0.578125 -0.65625 L 0.578125 -0.546875 L 0.21875 -0.546875 L 0.21875 -0.375 L 0.53125 -0.375 L 0.53125 -0.296875 L 0.21875 -0.296875 L 0.21875 -0.109375 L 0.578125 -0.109375 L 0.578125 0 L 0.109375 0 Z M 0.109375 -0.65625 "/></g></g></g></g><g clip-path="url(#9d9e120305)"><g fill="#ab1d79" fill-opacity="1"><g transform="translate(5.638128, 1.471093)"><g><path d="M 0.65625 -0.453125 C 0.65625 -0.398438 0.640625 -0.359375 0.609375 -0.328125 C 0.578125 -0.296875 0.546875 -0.273438 0.515625 -0.265625 L 0.6875 0 L 0.546875 0 L 0.40625 -0.25 L 0.21875 -0.25 L 0.21875 0 L 0.109375 0 L 0.109375 -0.65625 L 0.4375 -0.65625 C 0.476562 -0.65625 0.515625 -0.644531 0.546875 -0.625 C 0.578125 -0.601562 0.601562 -0.578125 0.625 -0.546875 C 0.644531 -0.523438 0.65625 -0.492188 0.65625 -0.453125 Z M 0.421875 -0.546875 L 0.21875 -0.546875 L 0.21875 -0.328125 L 0.4375 -0.328125 C 0.457031 -0.328125 0.472656 -0.332031 0.484375 -0.34375 C 0.503906 -0.351562 0.515625 -0.367188 0.515625 -0.390625 C 0.523438 -0.410156 0.53125 -0.429688 0.53125 -0.453125 C 0.53125 -0.472656 0.523438 -0.488281 0.515625 -0.5 C 0.515625 -0.507812 0.503906 -0.519531 0.484375 -0.53125 C 0.460938 -0.539062 0.441406 -0.546875 0.421875 -0.546875 Z M 0.421875 -0.546875 "/></g></g></g></g><g clip-path="url(#80d3237aba)"><g fill="#ab1d79" fill-opacity="1"><g transform="translate(6.487095, 1.471093)"><g><path d="M 0.59375 0 L 0.53125 -0.15625 L 0.21875 -0.15625 L 0.140625 0 L 0.046875 0 L 0.3125 -0.65625 L 0.4375 -0.65625 L 0.71875 0 Z M 0.328125 -0.40625 L 0.265625 -0.265625 L 0.5 -0.265625 L 0.421875 -0.421875 C 0.410156 -0.441406 0.398438 -0.460938 0.390625 -0.484375 C 0.390625 -0.503906 0.382812 -0.519531 0.375 -0.53125 C 0.363281 -0.519531 0.351562 -0.5 0.34375 -0.46875 C 0.332031 -0.445312 0.328125 -0.425781 0.328125 -0.40625 Z M 0.328125 -0.40625 "/></g></g></g></g><g clip-path="url(#493ec93d34)"><g fill="#ab1d79" fill-opacity="1"><g transform="translate(7.332348, 1.471093)"><g><path d="M 0.265625 0 L 0.265625 -0.546875 L 0.0625 -0.546875 L 0.0625 -0.65625 L 0.578125 -0.65625 L 0.578125 -0.546875 L 0.359375 -0.546875 L 0.359375 0 Z M 0.265625 0 "/></g></g></g></g><g clip-path="url(#2eedfe02fc)"><g fill="#ab1d79" fill-opacity="1"><g transform="translate(8.054063, 1.471093)"><g><path d="M 0.484375 0 L 0.109375 0 L 0.109375 -0.109375 L 0.25 -0.109375 L 0.25 -0.546875 L 0.109375 -0.546875 L 0.109375 -0.65625 L 0.484375 -0.65625 L 0.484375 -0.546875 L 0.34375 -0.546875 L 0.34375 -0.109375 L 0.484375 -0.109375 Z M 0.484375 0 "/></g></g></g></g><g clip-path="url(#5f59758ca6)"><g fill="#ab1d79" fill-opacity="1"><g transform="translate(8.723763, 1.471093)"><g><path d="M 0.765625 -0.3125 C 0.765625 -0.28125 0.753906 -0.238281 0.734375 -0.1875 C 0.722656 -0.144531 0.703125 -0.109375 0.671875 -0.078125 C 0.640625 -0.0546875 0.601562 -0.0351562 0.5625 -0.015625 C 0.519531 0.00390625 0.472656 0.015625 0.421875 0.015625 C 0.367188 0.015625 0.320312 0.00390625 0.28125 -0.015625 C 0.238281 -0.0351562 0.203125 -0.0546875 0.171875 -0.078125 C 0.140625 -0.109375 0.113281 -0.144531 0.09375 -0.1875 C 0.0820312 -0.238281 0.078125 -0.28125 0.078125 -0.3125 C 0.078125 -0.363281 0.0820312 -0.410156 0.09375 -0.453125 C 0.113281 -0.492188 0.140625 -0.53125 0.171875 -0.5625 C 0.203125 -0.59375 0.238281 -0.613281 0.28125 -0.625 C 0.320312 -0.644531 0.367188 -0.65625 0.421875 -0.65625 C 0.472656 -0.65625 0.519531 -0.644531 0.5625 -0.625 C 0.601562 -0.613281 0.640625 -0.59375 0.671875 -0.5625 C 0.703125 -0.53125 0.722656 -0.492188 0.734375 -0.453125 C 0.753906 -0.410156 0.765625 -0.363281 0.765625 -0.3125 Z M 0.671875 -0.3125 C 0.671875 -0.363281 0.660156 -0.40625 0.640625 -0.4375 C 0.617188 -0.476562 0.585938 -0.507812 0.546875 -0.53125 C 0.515625 -0.550781 0.472656 -0.5625 0.421875 -0.5625 C 0.367188 -0.5625 0.320312 -0.550781 0.28125 -0.53125 C 0.25 -0.507812 0.222656 -0.476562 0.203125 -0.4375 C 0.179688 -0.40625 0.171875 -0.363281 0.171875 -0.3125 C 0.171875 -0.28125 0.179688 -0.242188 0.203125 -0.203125 C 0.222656 -0.160156 0.25 -0.128906 0.28125 -0.109375 C 0.320312 -0.0976562 0.367188 -0.09375 0.421875 -0.09375 C 0.472656 -0.09375 0.515625 -0.0976562 0.546875 -0.109375 C 0.585938 -0.128906 0.617188 -0.160156 0.640625 -0.203125 C 0.660156 -0.242188 0.671875 -0.28125 0.671875 -0.3125 Z M 0.671875 -0.3125 "/></g></g></g></g><g clip-path="url(#0465942aeb)"><g fill="#ab1d79" fill-opacity="1"><g transform="translate(9.655399, 1.471093)"><g><path d="M 0.640625 -0.65625 L 0.734375 -0.65625 L 0.734375 0 L 0.640625 0 L 0.203125 -0.515625 C 0.210938 -0.472656 0.21875 -0.429688 0.21875 -0.390625 C 0.21875 -0.347656 0.21875 -0.3125 0.21875 -0.28125 L 0.21875 0 L 0.109375 0 L 0.109375 -0.65625 L 0.21875 -0.65625 L 0.65625 -0.125 C 0.644531 -0.15625 0.640625 -0.191406 0.640625 -0.234375 C 0.640625 -0.273438 0.640625 -0.3125 0.640625 -0.34375 C 0.640625 -0.375 0.640625 -0.40625 0.640625 -0.4375 Z M 0.640625 -0.65625 "/></g></g></g></g><g clip-path="url(#6a7661ac81)"><g fill="#ab1d79" fill-opacity="1"><g transform="translate(10.600038, 1.471093)"><g/></g></g></g><g clip-path="url(#a34addcbb1)"><g fill="#ab1d79" fill-opacity="1"><g transform="translate(11.022663, 1.471093)"><g><path d="M 0.484375 0 L 0.109375 0 L 0.109375 -0.109375 L 0.25 -0.109375 L 0.25 -0.546875 L 0.109375 -0.546875 L 0.109375 -0.65625 L 0.484375 -0.65625 L 0.484375 -0.546875 L 0.34375 -0.546875 L 0.34375 -0.109375 L 0.484375 -0.109375 Z M 0.484375 0 "/></g></g></g></g><g clip-path="url(#bae687ca41)"><g fill="#ab1d79" fill-opacity="1"><g transform="translate(11.692364, 1.471093)"><g><path d="M 0.578125 -0.109375 L 0.578125 0 L 0.109375 0 L 0.109375 -0.65625 L 0.21875 -0.65625 L 0.21875 -0.109375 Z M 0.578125 -0.109375 "/></g></g></g></g><g clip-path="url(#6750fc8969)"><g fill="#ab1d79" fill-opacity="1"><g transform="translate(12.446589, 1.471093)"><g><path d="M 0.578125 -0.109375 L 0.578125 0 L 0.109375 0 L 0.109375 -0.65625 L 0.21875 -0.65625 L 0.21875 -0.109375 Z M 0.578125 -0.109375 "/></g></g></g></g><g clip-path="url(#5c012a7ab3)"><g fill="#ab1d79" fill-opacity="1"><g transform="translate(13.200815, 1.471093)"><g><path d="M 0.6875 -0.65625 L 0.6875 -0.28125 C 0.6875 -0.21875 0.671875 -0.164062 0.640625 -0.125 C 0.617188 -0.09375 0.585938 -0.0625 0.546875 -0.03125 C 0.503906 -0.0078125 0.457031 0 0.40625 0 C 0.34375 0 0.289062 -0.0078125 0.25 -0.03125 C 0.207031 -0.0625 0.171875 -0.09375 0.140625 -0.125 C 0.117188 -0.164062 0.109375 -0.21875 0.109375 -0.28125 L 0.109375 -0.65625 L 0.21875 -0.65625 L 0.21875 -0.28125 C 0.21875 -0.25 0.222656 -0.21875 0.234375 -0.1875 C 0.253906 -0.15625 0.273438 -0.128906 0.296875 -0.109375 C 0.328125 -0.0976562 0.363281 -0.09375 0.40625 -0.09375 C 0.4375 -0.09375 0.460938 -0.0976562 0.484375 -0.109375 C 0.515625 -0.128906 0.539062 -0.15625 0.5625 -0.1875 C 0.582031 -0.21875 0.59375 -0.25 0.59375 -0.28125 L 0.59375 -0.65625 Z M 0.6875 -0.65625 "/></g></g></g></g><g clip-path="url(#9c6158c0af)"><g fill="#ab1d79" fill-opacity="1"><g transform="translate(14.087866, 1.471093)"><g><path d="M 0.140625 -0.203125 C 0.171875 -0.160156 0.203125 -0.128906 0.234375 -0.109375 C 0.273438 -0.0976562 0.316406 -0.09375 0.359375 -0.09375 C 0.378906 -0.09375 0.398438 -0.09375 0.421875 -0.09375 C 0.453125 -0.101562 0.472656 -0.113281 0.484375 -0.125 C 0.503906 -0.132812 0.515625 -0.148438 0.515625 -0.171875 C 0.515625 -0.203125 0.5 -0.222656 0.46875 -0.234375 C 0.4375 -0.253906 0.390625 -0.269531 0.328125 -0.28125 C 0.265625 -0.289062 0.210938 -0.3125 0.171875 -0.34375 C 0.128906 -0.375 0.109375 -0.421875 0.109375 -0.484375 C 0.109375 -0.515625 0.117188 -0.539062 0.140625 -0.5625 C 0.160156 -0.59375 0.191406 -0.613281 0.234375 -0.625 C 0.273438 -0.644531 0.316406 -0.65625 0.359375 -0.65625 C 0.421875 -0.65625 0.46875 -0.644531 0.5 -0.625 C 0.539062 -0.601562 0.578125 -0.578125 0.609375 -0.546875 L 0.53125 -0.484375 C 0.519531 -0.503906 0.5 -0.519531 0.46875 -0.53125 C 0.4375 -0.550781 0.394531 -0.5625 0.34375 -0.5625 C 0.3125 -0.5625 0.28125 -0.550781 0.25 -0.53125 C 0.226562 -0.519531 0.21875 -0.503906 0.21875 -0.484375 C 0.21875 -0.453125 0.234375 -0.425781 0.265625 -0.40625 C 0.296875 -0.394531 0.332031 -0.382812 0.375 -0.375 C 0.40625 -0.363281 0.4375 -0.351562 0.46875 -0.34375 C 0.5 -0.34375 0.523438 -0.335938 0.546875 -0.328125 C 0.566406 -0.316406 0.582031 -0.300781 0.59375 -0.28125 C 0.601562 -0.257812 0.609375 -0.234375 0.609375 -0.203125 C 0.609375 -0.148438 0.597656 -0.109375 0.578125 -0.078125 C 0.554688 -0.0546875 0.523438 -0.0351562 0.484375 -0.015625 C 0.453125 0.00390625 0.40625 0.015625 0.34375 0.015625 C 0.289062 0.015625 0.238281 0.00390625 0.1875 -0.015625 C 0.144531 -0.0351562 0.109375 -0.0664062 0.078125 -0.109375 Z M 0.140625 -0.203125 "/></g></g></g></g><g clip-path="url(#850a13988c)"><g fill="#ab1d79" fill-opacity="1"><g transform="translate(14.869028, 1.471093)"><g><path d="M 0.265625 0 L 0.265625 -0.546875 L 0.0625 -0.546875 L 0.0625 -0.65625 L 0.578125 -0.65625 L 0.578125 -0.546875 L 0.359375 -0.546875 L 0.359375 0 Z M 0.265625 0 "/></g></g></g></g><g clip-path="url(#d92eb2544a)"><g fill="#ab1d79" fill-opacity="1"><g transform="translate(15.590743, 1.471093)"><g><path d="M 0.65625 -0.453125 C 0.65625 -0.398438 0.640625 -0.359375 0.609375 -0.328125 C 0.578125 -0.296875 0.546875 -0.273438 0.515625 -0.265625 L 0.6875 0 L 0.546875 0 L 0.40625 -0.25 L 0.21875 -0.25 L 0.21875 0 L 0.109375 0 L 0.109375 -0.65625 L 0.4375 -0.65625 C 0.476562 -0.65625 0.515625 -0.644531 0.546875 -0.625 C 0.578125 -0.601562 0.601562 -0.578125 0.625 -0.546875 C 0.644531 -0.523438 0.65625 -0.492188 0.65625 -0.453125 Z M 0.421875 -0.546875 L 0.21875 -0.546875 L 0.21875 -0.328125 L 0.4375 -0.328125 C 0.457031 -0.328125 0.472656 -0.332031 0.484375 -0.34375 C 0.503906 -0.351562 0.515625 -0.367188 0.515625 -0.390625 C 0.523438 -0.410156 0.53125 -0.429688 0.53125 -0.453125 C 0.53125 -0.472656 0.523438 -0.488281 0.515625 -0.5 C 0.515625 -0.507812 0.503906 -0.519531 0.484375 -0.53125 C 0.460938 -0.539062 0.441406 -0.546875 0.421875 -0.546875 Z M 0.421875 -0.546875 "/></g></g></g></g><g clip-path="url(#eca05af22a)"><g fill="#ab1d79" fill-opacity="1"><g transform="translate(16.439711, 1.471093)"><g><path d="M 0.59375 0 L 0.53125 -0.15625 L 0.21875 -0.15625 L 0.140625 0 L 0.046875 0 L 0.3125 -0.65625 L 0.4375 -0.65625 L 0.71875 0 Z M 0.328125 -0.40625 L 0.265625 -0.265625 L 0.5 -0.265625 L 0.421875 -0.421875 C 0.410156 -0.441406 0.398438 -0.460938 0.390625 -0.484375 C 0.390625 -0.503906 0.382812 -0.519531 0.375 -0.53125 C 0.363281 -0.519531 0.351562 -0.5 0.34375 -0.46875 C 0.332031 -0.445312 0.328125 -0.425781 0.328125 -0.40625 Z M 0.328125 -0.40625 "/></g></g></g></g><g clip-path="url(#e4f65f1960)"><g fill="#ab1d79" fill-opacity="1"><g transform="translate(17.284963, 1.471093)"><g><path d="M 0.265625 0 L 0.265625 -0.546875 L 0.0625 -0.546875 L 0.0625 -0.65625 L 0.578125 -0.65625 L 0.578125 -0.546875 L 0.359375 -0.546875 L 0.359375 0 Z M 0.265625 0 "/></g></g></g></g><g clip-path="url(#26d05544e3)"><g fill="#ab1d79" fill-opacity="1"><g transform="translate(18.006678, 1.471093)"><g><path d="M 0.765625 -0.3125 C 0.765625 -0.28125 0.753906 -0.238281 0.734375 -0.1875 C 0.722656 -0.144531 0.703125 -0.109375 0.671875 -0.078125 C 0.640625 -0.0546875 0.601562 -0.0351562 0.5625 -0.015625 C 0.519531 0.00390625 0.472656 0.015625 0.421875 0.015625 C 0.367188 0.015625 0.320312 0.00390625 0.28125 -0.015625 C 0.238281 -0.0351562 0.203125 -0.0546875 0.171875 -0.078125 C 0.140625 -0.109375 0.113281 -0.144531 0.09375 -0.1875 C 0.0820312 -0.238281 0.078125 -0.28125 0.078125 -0.3125 C 0.078125 -0.363281 0.0820312 -0.410156 0.09375 -0.453125 C 0.113281 -0.492188 0.140625 -0.53125 0.171875 -0.5625 C 0.203125 -0.59375 0.238281 -0.613281 0.28125 -0.625 C 0.320312 -0.644531 0.367188 -0.65625 0.421875 -0.65625 C 0.472656 -0.65625 0.519531 -0.644531 0.5625 -0.625 C 0.601562 -0.613281 0.640625 -0.59375 0.671875 -0.5625 C 0.703125 -0.53125 0.722656 -0.492188 0.734375 -0.453125 C 0.753906 -0.410156 0.765625 -0.363281 0.765625 -0.3125 Z M 0.671875 -0.3125 C 0.671875 -0.363281 0.660156 -0.40625 0.640625 -0.4375 C 0.617188 -0.476562 0.585938 -0.507812 0.546875 -0.53125 C 0.515625 -0.550781 0.472656 -0.5625 0.421875 -0.5625 C 0.367188 -0.5625 0.320312 -0.550781 0.28125 -0.53125 C 0.25 -0.507812 0.222656 -0.476562 0.203125 -0.4375 C 0.179688 -0.40625 0.171875 -0.363281 0.171875 -0.3125 C 0.171875 -0.28125 0.179688 -0.242188 0.203125 -0.203125 C 0.222656 -0.160156 0.25 -0.128906 0.28125 -0.109375 C 0.320312 -0.0976562 0.367188 -0.09375 0.421875 -0.09375 C 0.472656 -0.09375 0.515625 -0.0976562 0.546875 -0.109375 C 0.585938 -0.128906 0.617188 -0.160156 0.640625 -0.203125 C 0.660156 -0.242188 0.671875 -0.28125 0.671875 -0.3125 Z M 0.671875 -0.3125 "/></g></g></g></g><g clip-path="url(#6bc153b46e)"><g fill="#ab1d79" fill-opacity="1"><g transform="translate(18.938313, 1.471093)"><g><path d="M 0.65625 -0.453125 C 0.65625 -0.398438 0.640625 -0.359375 0.609375 -0.328125 C 0.578125 -0.296875 0.546875 -0.273438 0.515625 -0.265625 L 0.6875 0 L 0.546875 0 L 0.40625 -0.25 L 0.21875 -0.25 L 0.21875 0 L 0.109375 0 L 0.109375 -0.65625 L 0.4375 -0.65625 C 0.476562 -0.65625 0.515625 -0.644531 0.546875 -0.625 C 0.578125 -0.601562 0.601562 -0.578125 0.625 -0.546875 C 0.644531 -0.523438 0.65625 -0.492188 0.65625 -0.453125 Z M 0.421875 -0.546875 L 0.21875 -0.546875 L 0.21875 -0.328125 L 0.4375 -0.328125 C 0.457031 -0.328125 0.472656 -0.332031 0.484375 -0.34375 C 0.503906 -0.351562 0.515625 -0.367188 0.515625 -0.390625 C 0.523438 -0.410156 0.53125 -0.429688 0.53125 -0.453125 C 0.53125 -0.472656 0.523438 -0.488281 0.515625 -0.5 C 0.515625 -0.507812 0.503906 -0.519531 0.484375 -0.53125 C 0.460938 -0.539062 0.441406 -0.546875 0.421875 -0.546875 Z M 0.421875 -0.546875 "/></g></g></g></g></g></g><g transform="matrix(1, 0, 0, 1, 6, 24)"><g clip-path="url(#49195e66b4)"><g clip-path="url(#9cd05da561)"><g fill="#ab1d79" fill-opacity="1"><g transform="translate(0.239924, 3.114566)"><g><path d="M 1.46875 0.03125 C 1.28125 0.03125 1.113281 0.0195312 0.96875 0 C 0.832031 -0.0078125 0.71875 -0.0195312 0.625 -0.03125 C 0.53125 -0.0507812 0.445312 -0.0976562 0.375 -0.171875 C 0.3125 -0.253906 0.28125 -0.347656 0.28125 -0.453125 L 0.28125 -2.21875 C 0.28125 -2.320312 0.3125 -2.410156 0.375 -2.484375 C 0.445312 -2.566406 0.53125 -2.617188 0.625 -2.640625 C 0.71875 -2.660156 0.835938 -2.675781 0.984375 -2.6875 C 1.128906 -2.695312 1.296875 -2.703125 1.484375 -2.703125 C 1.941406 -2.703125 2.296875 -2.585938 2.546875 -2.359375 C 2.796875 -2.128906 2.921875 -1.785156 2.921875 -1.328125 C 2.921875 -0.890625 2.796875 -0.550781 2.546875 -0.3125 C 2.296875 -0.0820312 1.9375 0.03125 1.46875 0.03125 Z M 0.8125 -0.5625 C 0.8125 -0.53125 0.820312 -0.503906 0.84375 -0.484375 C 0.863281 -0.460938 0.882812 -0.445312 0.90625 -0.4375 C 0.96875 -0.425781 1.046875 -0.414062 1.140625 -0.40625 C 1.234375 -0.394531 1.34375 -0.390625 1.46875 -0.390625 C 1.769531 -0.390625 2 -0.460938 2.15625 -0.609375 C 2.3125 -0.765625 2.390625 -1.003906 2.390625 -1.328125 C 2.390625 -1.660156 2.3125 -1.898438 2.15625 -2.046875 C 2 -2.203125 1.773438 -2.28125 1.484375 -2.28125 C 1.347656 -2.28125 1.234375 -2.273438 1.140625 -2.265625 C 1.046875 -2.253906 0.96875 -2.238281 0.90625 -2.21875 C 0.84375 -2.207031 0.8125 -2.171875 0.8125 -2.109375 Z M 0.8125 -0.5625 "/></g></g></g></g><g fill="#ab1d79" fill-opacity="1"><g transform="translate(3.340982, 3.114566)"><g><path d="M 0.546875 0.03125 C 0.460938 0.03125 0.394531 0.0078125 0.34375 -0.03125 C 0.300781 -0.0820312 0.28125 -0.144531 0.28125 -0.21875 L 0.28125 -1.171875 C 0.28125 -1.429688 0.347656 -1.625 0.484375 -1.75 C 0.617188 -1.875 0.804688 -1.9375 1.046875 -1.9375 C 1.179688 -1.9375 1.296875 -1.925781 1.390625 -1.90625 C 1.492188 -1.882812 1.578125 -1.847656 1.640625 -1.796875 C 1.691406 -1.765625 1.71875 -1.71875 1.71875 -1.65625 C 1.71875 -1.613281 1.703125 -1.570312 1.671875 -1.53125 C 1.628906 -1.476562 1.578125 -1.453125 1.515625 -1.453125 C 1.484375 -1.453125 1.453125 -1.457031 1.421875 -1.46875 C 1.367188 -1.488281 1.320312 -1.503906 1.28125 -1.515625 C 1.25 -1.523438 1.203125 -1.53125 1.140625 -1.53125 C 1.035156 -1.53125 0.953125 -1.5 0.890625 -1.4375 C 0.828125 -1.382812 0.796875 -1.304688 0.796875 -1.203125 L 0.796875 -0.21875 C 0.796875 -0.144531 0.773438 -0.0820312 0.734375 -0.03125 C 0.691406 0.0078125 0.628906 0.03125 0.546875 0.03125 Z M 0.546875 0.03125 "/></g></g></g><g fill="#ab1d79" fill-opacity="1"><g transform="translate(5.142951, 3.114566)"><g><path d="M 1.25 0.03125 C 1.007812 0.03125 0.804688 -0.0078125 0.640625 -0.09375 C 0.484375 -0.175781 0.363281 -0.289062 0.28125 -0.4375 C 0.195312 -0.59375 0.15625 -0.769531 0.15625 -0.96875 C 0.15625 -1.15625 0.191406 -1.320312 0.265625 -1.46875 C 0.335938 -1.613281 0.445312 -1.726562 0.59375 -1.8125 C 0.738281 -1.894531 0.921875 -1.9375 1.140625 -1.9375 C 1.367188 -1.9375 1.550781 -1.90625 1.6875 -1.84375 C 1.820312 -1.789062 1.921875 -1.71875 1.984375 -1.625 C 2.046875 -1.53125 2.078125 -1.425781 2.078125 -1.3125 C 2.078125 -1.132812 2.015625 -0.992188 1.890625 -0.890625 C 1.765625 -0.785156 1.585938 -0.734375 1.359375 -0.734375 C 1.097656 -0.734375 0.867188 -0.78125 0.671875 -0.875 C 0.691406 -0.707031 0.765625 -0.570312 0.890625 -0.46875 C 1.015625 -0.375 1.171875 -0.328125 1.359375 -0.328125 C 1.441406 -0.328125 1.515625 -0.335938 1.578125 -0.359375 C 1.648438 -0.378906 1.722656 -0.40625 1.796875 -0.4375 C 1.828125 -0.457031 1.859375 -0.46875 1.890625 -0.46875 C 1.941406 -0.46875 1.984375 -0.441406 2.015625 -0.390625 C 2.035156 -0.359375 2.046875 -0.320312 2.046875 -0.28125 C 2.046875 -0.257812 2.039062 -0.234375 2.03125 -0.203125 C 2.019531 -0.179688 2.003906 -0.160156 1.984375 -0.140625 C 1.835938 -0.0234375 1.59375 0.03125 1.25 0.03125 Z M 0.703125 -1.203125 C 0.785156 -1.160156 0.867188 -1.128906 0.953125 -1.109375 C 1.046875 -1.085938 1.144531 -1.078125 1.25 -1.078125 C 1.375 -1.078125 1.46875 -1.097656 1.53125 -1.140625 C 1.59375 -1.191406 1.625 -1.25 1.625 -1.3125 C 1.625 -1.394531 1.585938 -1.457031 1.515625 -1.5 C 1.441406 -1.550781 1.335938 -1.578125 1.203125 -1.578125 C 1.066406 -1.578125 0.957031 -1.546875 0.875 -1.484375 C 0.789062 -1.421875 0.734375 -1.328125 0.703125 -1.203125 Z M 0.703125 -1.203125 "/></g></g></g><g fill="#ab1d79" fill-opacity="1"><g transform="translate(7.405887, 3.114566)"><g><path d="M 1.84375 0.03125 C 1.757812 0.03125 1.695312 0.0078125 1.65625 -0.03125 C 1.613281 -0.0703125 1.59375 -0.128906 1.59375 -0.203125 L 1.59375 -0.28125 C 1.519531 -0.1875 1.425781 -0.109375 1.3125 -0.046875 C 1.195312 0.00390625 1.0625 0.03125 0.90625 0.03125 C 0.675781 0.03125 0.492188 -0.0195312 0.359375 -0.125 C 0.222656 -0.226562 0.15625 -0.378906 0.15625 -0.578125 C 0.15625 -0.691406 0.179688 -0.796875 0.234375 -0.890625 C 0.296875 -0.984375 0.382812 -1.054688 0.5 -1.109375 C 0.613281 -1.171875 0.765625 -1.203125 0.953125 -1.203125 C 1.066406 -1.203125 1.175781 -1.1875 1.28125 -1.15625 C 1.394531 -1.125 1.5 -1.082031 1.59375 -1.03125 L 1.59375 -1.1875 C 1.59375 -1.300781 1.539062 -1.394531 1.4375 -1.46875 C 1.34375 -1.539062 1.207031 -1.578125 1.03125 -1.578125 C 0.9375 -1.578125 0.851562 -1.566406 0.78125 -1.546875 C 0.707031 -1.535156 0.628906 -1.515625 0.546875 -1.484375 C 0.523438 -1.472656 0.5 -1.46875 0.46875 -1.46875 C 0.394531 -1.46875 0.34375 -1.507812 0.3125 -1.59375 C 0.300781 -1.613281 0.296875 -1.640625 0.296875 -1.671875 C 0.296875 -1.742188 0.335938 -1.796875 0.421875 -1.828125 C 0.546875 -1.867188 0.65625 -1.894531 0.75 -1.90625 C 0.851562 -1.925781 0.972656 -1.9375 1.109375 -1.9375 C 1.421875 -1.9375 1.664062 -1.875 1.84375 -1.75 C 2.019531 -1.625 2.109375 -1.4375 2.109375 -1.1875 L 2.109375 -0.203125 C 2.109375 -0.128906 2.085938 -0.0703125 2.046875 -0.03125 C 2.003906 0.0078125 1.9375 0.03125 1.84375 0.03125 Z M 0.671875 -0.609375 C 0.671875 -0.523438 0.707031 -0.457031 0.78125 -0.40625 C 0.863281 -0.351562 0.972656 -0.328125 1.109375 -0.328125 C 1.253906 -0.328125 1.363281 -0.367188 1.4375 -0.453125 C 1.519531 -0.535156 1.570312 -0.632812 1.59375 -0.75 C 1.519531 -0.789062 1.441406 -0.820312 1.359375 -0.84375 C 1.273438 -0.875 1.1875 -0.890625 1.09375 -0.890625 C 0.945312 -0.890625 0.835938 -0.863281 0.765625 -0.8125 C 0.703125 -0.757812 0.671875 -0.691406 0.671875 -0.609375 Z M 0.671875 -0.609375 "/></g></g></g><g fill="#ab1d79" fill-opacity="1"><g transform="translate(9.821208, 3.114566)"><g><path d="M 0.6875 0.015625 C 0.65625 0.0234375 0.617188 0.03125 0.578125 0.03125 C 0.472656 0.03125 0.394531 -0.015625 0.34375 -0.109375 C 0.3125 -0.222656 0.28125 -0.347656 0.25 -0.484375 C 0.226562 -0.628906 0.21875 -0.769531 0.21875 -0.90625 C 0.21875 -1.601562 0.492188 -1.953125 1.046875 -1.953125 C 1.191406 -1.953125 1.320312 -1.921875 1.4375 -1.859375 C 1.550781 -1.804688 1.644531 -1.722656 1.71875 -1.609375 C 1.789062 -1.722656 1.882812 -1.804688 2 -1.859375 C 2.113281 -1.921875 2.242188 -1.953125 2.390625 -1.953125 C 2.941406 -1.953125 3.21875 -1.601562 3.21875 -0.90625 C 3.21875 -0.769531 3.203125 -0.628906 3.171875 -0.484375 C 3.148438 -0.347656 3.125 -0.222656 3.09375 -0.109375 C 3.039062 -0.015625 2.960938 0.03125 2.859375 0.03125 C 2.816406 0.03125 2.78125 0.0234375 2.75 0.015625 C 2.65625 -0.0351562 2.609375 -0.109375 2.609375 -0.203125 C 2.609375 -0.222656 2.609375 -0.242188 2.609375 -0.265625 C 2.609375 -0.285156 2.613281 -0.304688 2.625 -0.328125 C 2.644531 -0.421875 2.660156 -0.519531 2.671875 -0.625 C 2.691406 -0.738281 2.703125 -0.847656 2.703125 -0.953125 C 2.703125 -1.160156 2.671875 -1.304688 2.609375 -1.390625 C 2.546875 -1.484375 2.453125 -1.53125 2.328125 -1.53125 C 2.222656 -1.53125 2.132812 -1.492188 2.0625 -1.421875 C 2 -1.359375 1.96875 -1.253906 1.96875 -1.109375 L 1.96875 -0.21875 C 1.96875 -0.144531 1.945312 -0.0820312 1.90625 -0.03125 C 1.863281 0.0078125 1.800781 0.03125 1.71875 0.03125 C 1.632812 0.03125 1.566406 0.0078125 1.515625 -0.03125 C 1.472656 -0.0820312 1.453125 -0.144531 1.453125 -0.21875 L 1.453125 -1.109375 C 1.453125 -1.253906 1.421875 -1.359375 1.359375 -1.421875 C 1.296875 -1.492188 1.210938 -1.53125 1.109375 -1.53125 C 0.984375 -1.53125 0.890625 -1.484375 0.828125 -1.390625 C 0.765625 -1.304688 0.734375 -1.160156 0.734375 -0.953125 C 0.734375 -0.847656 0.738281 -0.738281 0.75 -0.625 C 0.769531 -0.519531 0.789062 -0.421875 0.8125 -0.328125 C 0.820312 -0.285156 0.828125 -0.242188 0.828125 -0.203125 C 0.828125 -0.109375 0.78125 -0.0351562 0.6875 0.015625 Z M 0.6875 0.015625 "/></g></g></g><g clip-path="url(#ae3adbc125)"><g fill="#ab1d79" fill-opacity="1"><g transform="translate(13.272754, 3.114566)"><g><path d="M 1.265625 0.03125 C 1.179688 0.03125 1.113281 0.0078125 1.0625 -0.03125 C 1.019531 -0.0820312 1 -0.144531 1 -0.21875 L 1 -2.28125 C 0.832031 -2.269531 0.6875 -2.253906 0.5625 -2.234375 C 0.445312 -2.222656 0.351562 -2.210938 0.28125 -2.203125 C 0.21875 -2.203125 0.160156 -2.222656 0.109375 -2.265625 C 0.0664062 -2.304688 0.046875 -2.359375 0.046875 -2.421875 C 0.046875 -2.472656 0.0625 -2.515625 0.09375 -2.546875 C 0.132812 -2.585938 0.175781 -2.613281 0.21875 -2.625 C 0.320312 -2.644531 0.457031 -2.660156 0.625 -2.671875 C 0.800781 -2.691406 1.015625 -2.703125 1.265625 -2.703125 C 1.523438 -2.703125 1.738281 -2.691406 1.90625 -2.671875 C 2.082031 -2.660156 2.21875 -2.644531 2.3125 -2.625 C 2.363281 -2.613281 2.40625 -2.585938 2.4375 -2.546875 C 2.476562 -2.503906 2.5 -2.457031 2.5 -2.40625 C 2.5 -2.34375 2.472656 -2.289062 2.421875 -2.25 C 2.378906 -2.207031 2.328125 -2.191406 2.265625 -2.203125 C 2.191406 -2.210938 2.09375 -2.222656 1.96875 -2.234375 C 1.851562 -2.253906 1.707031 -2.269531 1.53125 -2.28125 L 1.53125 -0.21875 C 1.53125 -0.144531 1.507812 -0.0820312 1.46875 -0.03125 C 1.425781 0.0078125 1.359375 0.03125 1.265625 0.03125 Z M 1.265625 0.03125 "/></g></g></g></g><g fill="#ab1d79" fill-opacity="1"><g transform="translate(15.829032, 3.114566)"><g><path d="M 1.84375 0.03125 C 1.757812 0.03125 1.695312 0.0078125 1.65625 -0.03125 C 1.613281 -0.0703125 1.59375 -0.128906 1.59375 -0.203125 L 1.59375 -0.28125 C 1.519531 -0.1875 1.425781 -0.109375 1.3125 -0.046875 C 1.195312 0.00390625 1.0625 0.03125 0.90625 0.03125 C 0.675781 0.03125 0.492188 -0.0195312 0.359375 -0.125 C 0.222656 -0.226562 0.15625 -0.378906 0.15625 -0.578125 C 0.15625 -0.691406 0.179688 -0.796875 0.234375 -0.890625 C 0.296875 -0.984375 0.382812 -1.054688 0.5 -1.109375 C 0.613281 -1.171875 0.765625 -1.203125 0.953125 -1.203125 C 1.066406 -1.203125 1.175781 -1.1875 1.28125 -1.15625 C 1.394531 -1.125 1.5 -1.082031 1.59375 -1.03125 L 1.59375 -1.1875 C 1.59375 -1.300781 1.539062 -1.394531 1.4375 -1.46875 C 1.34375 -1.539062 1.207031 -1.578125 1.03125 -1.578125 C 0.9375 -1.578125 0.851562 -1.566406 0.78125 -1.546875 C 0.707031 -1.535156 0.628906 -1.515625 0.546875 -1.484375 C 0.523438 -1.472656 0.5 -1.46875 0.46875 -1.46875 C 0.394531 -1.46875 0.34375 -1.507812 0.3125 -1.59375 C 0.300781 -1.613281 0.296875 -1.640625 0.296875 -1.671875 C 0.296875 -1.742188 0.335938 -1.796875 0.421875 -1.828125 C 0.546875 -1.867188 0.65625 -1.894531 0.75 -1.90625 C 0.851562 -1.925781 0.972656 -1.9375 1.109375 -1.9375 C 1.421875 -1.9375 1.664062 -1.875 1.84375 -1.75 C 2.019531 -1.625 2.109375 -1.4375 2.109375 -1.1875 L 2.109375 -0.203125 C 2.109375 -0.128906 2.085938 -0.0703125 2.046875 -0.03125 C 2.003906 0.0078125 1.9375 0.03125 1.84375 0.03125 Z M 0.671875 -0.609375 C 0.671875 -0.523438 0.707031 -0.457031 0.78125 -0.40625 C 0.863281 -0.351562 0.972656 -0.328125 1.109375 -0.328125 C 1.253906 -0.328125 1.363281 -0.367188 1.4375 -0.453125 C 1.519531 -0.535156 1.570312 -0.632812 1.59375 -0.75 C 1.519531 -0.789062 1.441406 -0.820312 1.359375 -0.84375 C 1.273438 -0.875 1.1875 -0.890625 1.09375 -0.890625 C 0.945312 -0.890625 0.835938 -0.863281 0.765625 -0.8125 C 0.703125 -0.757812 0.671875 -0.691406 0.671875 -0.609375 Z M 0.671875 -0.609375 "/></g></g></g><g clip-path="url(#7f4c239182)"><g fill="#ab1d79" fill-opacity="1"><g transform="translate(18.244354, 3.114566)"><g><path d="M 0.546875 0.03125 C 0.460938 0.03125 0.394531 0.0078125 0.34375 -0.03125 C 0.300781 -0.0703125 0.28125 -0.128906 0.28125 -0.203125 L 0.28125 -2.453125 C 0.28125 -2.523438 0.300781 -2.582031 0.34375 -2.625 C 0.394531 -2.675781 0.460938 -2.703125 0.546875 -2.703125 C 0.628906 -2.703125 0.691406 -2.675781 0.734375 -2.625 C 0.773438 -2.582031 0.796875 -2.523438 0.796875 -2.453125 L 0.796875 -0.203125 C 0.796875 -0.128906 0.773438 -0.0703125 0.734375 -0.03125 C 0.691406 0.0078125 0.628906 0.03125 0.546875 0.03125 Z M 0.546875 0.03125 "/></g></g></g></g><g fill="#ab1d79" fill-opacity="1"><g transform="translate(19.352966, 3.114566)"><g><path d="M 1.25 0.03125 C 1.007812 0.03125 0.804688 -0.0078125 0.640625 -0.09375 C 0.484375 -0.175781 0.363281 -0.289062 0.28125 -0.4375 C 0.195312 -0.59375 0.15625 -0.769531 0.15625 -0.96875 C 0.15625 -1.15625 0.191406 -1.320312 0.265625 -1.46875 C 0.335938 -1.613281 0.445312 -1.726562 0.59375 -1.8125 C 0.738281 -1.894531 0.921875 -1.9375 1.140625 -1.9375 C 1.367188 -1.9375 1.550781 -1.90625 1.6875 -1.84375 C 1.820312 -1.789062 1.921875 -1.71875 1.984375 -1.625 C 2.046875 -1.53125 2.078125 -1.425781 2.078125 -1.3125 C 2.078125 -1.132812 2.015625 -0.992188 1.890625 -0.890625 C 1.765625 -0.785156 1.585938 -0.734375 1.359375 -0.734375 C 1.097656 -0.734375 0.867188 -0.78125 0.671875 -0.875 C 0.691406 -0.707031 0.765625 -0.570312 0.890625 -0.46875 C 1.015625 -0.375 1.171875 -0.328125 1.359375 -0.328125 C 1.441406 -0.328125 1.515625 -0.335938 1.578125 -0.359375 C 1.648438 -0.378906 1.722656 -0.40625 1.796875 -0.4375 C 1.828125 -0.457031 1.859375 -0.46875 1.890625 -0.46875 C 1.941406 -0.46875 1.984375 -0.441406 2.015625 -0.390625 C 2.035156 -0.359375 2.046875 -0.320312 2.046875 -0.28125 C 2.046875 -0.257812 2.039062 -0.234375 2.03125 -0.203125 C 2.019531 -0.179688 2.003906 -0.160156 1.984375 -0.140625 C 1.835938 -0.0234375 1.59375 0.03125 1.25 0.03125 Z M 0.703125 -1.203125 C 0.785156 -1.160156 0.867188 -1.128906 0.953125 -1.109375 C 1.046875 -1.085938 1.144531 -1.078125 1.25 -1.078125 C 1.375 -1.078125 1.46875 -1.097656 1.53125 -1.140625 C 1.59375 -1.191406 1.625 -1.25 1.625 -1.3125 C 1.625 -1.394531 1.585938 -1.457031 1.515625 -1.5 C 1.441406 -1.550781 1.335938 -1.578125 1.203125 -1.578125 C 1.066406 -1.578125 0.957031 -1.546875 0.875 -1.484375 C 0.789062 -1.421875 0.734375 -1.328125 0.703125 -1.203125 Z M 0.703125 -1.203125 "/></g></g></g><g clip-path="url(#85f6e7679f)"><g fill="#ab1d79" fill-opacity="1"><g transform="translate(21.615902, 3.114566)"><g><path d="M 1.09375 0.03125 C 0.925781 0.03125 0.773438 0.0195312 0.640625 0 C 0.515625 -0.0195312 0.394531 -0.0625 0.28125 -0.125 C 0.238281 -0.144531 0.207031 -0.164062 0.1875 -0.1875 C 0.164062 -0.21875 0.15625 -0.253906 0.15625 -0.296875 C 0.15625 -0.304688 0.15625 -0.320312 0.15625 -0.34375 C 0.175781 -0.394531 0.203125 -0.429688 0.234375 -0.453125 C 0.265625 -0.472656 0.296875 -0.484375 0.328125 -0.484375 C 0.347656 -0.484375 0.367188 -0.476562 0.390625 -0.46875 C 0.523438 -0.414062 0.644531 -0.378906 0.75 -0.359375 C 0.863281 -0.335938 0.976562 -0.328125 1.09375 -0.328125 C 1.21875 -0.328125 1.3125 -0.34375 1.375 -0.375 C 1.445312 -0.414062 1.484375 -0.46875 1.484375 -0.53125 C 1.484375 -0.632812 1.40625 -0.703125 1.25 -0.734375 L 0.8125 -0.828125 C 0.644531 -0.859375 0.507812 -0.914062 0.40625 -1 C 0.300781 -1.082031 0.25 -1.207031 0.25 -1.375 C 0.25 -1.539062 0.3125 -1.675781 0.4375 -1.78125 C 0.570312 -1.882812 0.789062 -1.9375 1.09375 -1.9375 C 1.21875 -1.9375 1.332031 -1.925781 1.4375 -1.90625 C 1.550781 -1.882812 1.660156 -1.847656 1.765625 -1.796875 C 1.847656 -1.765625 1.890625 -1.710938 1.890625 -1.640625 C 1.890625 -1.617188 1.882812 -1.597656 1.875 -1.578125 C 1.863281 -1.535156 1.835938 -1.5 1.796875 -1.46875 C 1.765625 -1.445312 1.734375 -1.4375 1.703125 -1.4375 C 1.679688 -1.4375 1.660156 -1.441406 1.640625 -1.453125 C 1.546875 -1.492188 1.453125 -1.523438 1.359375 -1.546875 C 1.265625 -1.566406 1.175781 -1.578125 1.09375 -1.578125 C 0.96875 -1.578125 0.878906 -1.5625 0.828125 -1.53125 C 0.773438 -1.507812 0.75 -1.472656 0.75 -1.421875 C 0.75 -1.367188 0.769531 -1.328125 0.8125 -1.296875 C 0.851562 -1.273438 0.90625 -1.253906 0.96875 -1.234375 L 1.40625 -1.140625 C 1.601562 -1.097656 1.75 -1.03125 1.84375 -0.9375 C 1.9375 -0.851562 1.984375 -0.734375 1.984375 -0.578125 C 1.984375 -0.378906 1.910156 -0.226562 1.765625 -0.125 C 1.628906 -0.0195312 1.40625 0.03125 1.09375 0.03125 Z M 1.09375 0.03125 "/></g></g></g></g></g></g><g transform="matrix(1, 0, 0, 1, 3, 8)"><g clip-path="url(#6f1d734d30)"><g clip-path="url(#00980ccc42)"><path fill="#e57dff" d="M 12.433594 0.613281 L 12.636719 1.019531 L 13.082031 1.085938 L 12.757812 1.398438 L 12.835938 1.847656 L 12.433594 1.636719 L 12.035156 1.847656 L 12.109375 1.398438 L 11.785156 1.085938 L 12.234375 1.019531 L 12.433594 0.613281 " fill-opacity="1" fill-rule="nonzero"/></g><g clip-path="url(#0b918023cd)"><path fill="#e57dff" d="M 9.625 2.925781 L 10.007812 3.707031 L 10.871094 3.832031 L 10.246094 4.441406 L 10.394531 5.296875 L 9.625 4.890625 L 8.851562 5.296875 L 9 4.441406 L 8.378906 3.832031 L 9.238281 3.707031 L 9.625 2.925781 " fill-opacity="1" fill-rule="nonzero"/></g><g clip-path="url(#db6db47a8e)"><path fill="#d0c3f1" d="M 0.714844 7.496094 L 0.378906 8.359375 C 2.59375 7.703125 5.515625 8.078125 7.929688 9.570312 C 5.300781 7.046875 2.324219 7.074219 0.714844 7.496094 " fill-opacity="1" fill-rule="nonzero"/></g><g clip-path="url(#859357cf68)"><path fill="#d0c3f1" d="M 1.296875 5.996094 L 1.035156 6.675781 C 3.019531 6.300781 5.550781 6.941406 7.484375 8.527344 C 5.394531 5.902344 2.628906 5.738281 1.296875 5.996094 " fill-opacity="1" fill-rule="nonzero"/></g><g clip-path="url(#cacf803446)"><path fill="#d0c3f1" d="M 15.496094 7.496094 L 15.832031 8.359375 C 13.613281 7.703125 10.695312 8.078125 8.28125 9.570312 C 10.910156 7.046875 13.886719 7.074219 15.496094 7.496094 " fill-opacity="1" fill-rule="nonzero"/></g><g clip-path="url(#f243ecbef2)"><path fill="#e57dff" d="M 7.484375 5.910156 L 7.6875 6.316406 L 8.132812 6.378906 L 7.808594 6.695312 L 7.886719 7.144531 L 7.484375 6.933594 L 7.085938 7.144531 L 7.160156 6.695312 L 6.835938 6.378906 L 7.285156 6.316406 L 7.484375 5.910156 " fill-opacity="1" fill-rule="nonzero"/></g><g clip-path="url(#c2b023ec2a)"><path fill="#e57dff" d="M 4.558594 1.25 L 4.808594 1.753906 L 5.367188 1.835938 L 4.964844 2.226562 L 5.058594 2.785156 L 4.558594 2.519531 L 4.0625 2.785156 L 4.15625 2.226562 L 3.753906 1.835938 L 4.3125 1.753906 L 4.558594 1.25 " fill-opacity="1" fill-rule="nonzero"/></g></g></g><g transform="matrix(1, 0, 0, 1, 16, 6)"><g clip-path="url(#b0516ecde2)"><g clip-path="url(#df763ab4d8)"><path fill="#e57dff" d="M 12.871094 0.347656 L 13.070312 0.753906 L 13.519531 0.820312 L 13.195312 1.132812 L 13.273438 1.582031 L 12.871094 1.371094 L 12.46875 1.582031 L 12.546875 1.132812 L 12.222656 0.820312 L 12.671875 0.753906 L 12.871094 0.347656 " fill-opacity="1" fill-rule="nonzero"/></g><g clip-path="url(#eff193cb47)"><path fill="#e57dff" d="M 10.058594 2.660156 L 10.445312 3.441406 L 11.304688 3.566406 L 10.683594 4.175781 L 10.828125 5.03125 L 10.058594 4.625 L 9.289062 5.03125 L 9.4375 4.175781 L 8.8125 3.566406 L 9.675781 3.441406 L 10.058594 2.660156 " fill-opacity="1" fill-rule="nonzero"/></g><g clip-path="url(#39abde7e36)"><path fill="#d0c3f1" d="M 1.148438 7.230469 L 0.816406 8.09375 C 3.03125 7.4375 5.953125 7.8125 8.363281 9.304688 C 5.734375 6.78125 2.757812 6.808594 1.148438 7.230469 " fill-opacity="1" fill-rule="nonzero"/></g><g clip-path="url(#f22db96dbb)"><path fill="#d0c3f1" d="M 1.734375 5.730469 L 1.46875 6.410156 C 3.453125 6.035156 5.984375 6.675781 7.921875 8.261719 C 5.828125 5.636719 3.0625 5.472656 1.734375 5.730469 " fill-opacity="1" fill-rule="nonzero"/></g><g clip-path="url(#c610451827)"><path fill="#d0c3f1" d="M 15.933594 7.230469 L 16.265625 8.09375 C 14.050781 7.4375 11.128906 7.8125 8.71875 9.304688 C 11.347656 6.78125 14.324219 6.808594 15.933594 7.230469 " fill-opacity="1" fill-rule="nonzero"/></g><g clip-path="url(#ff634beb41)"><path fill="#e57dff" d="M 7.921875 5.644531 L 8.121094 6.050781 L 8.570312 6.113281 L 8.246094 6.429688 L 8.324219 6.878906 L 7.921875 6.667969 L 7.519531 6.878906 L 7.597656 6.429688 L 7.273438 6.113281 L 7.722656 6.050781 L 7.921875 5.644531 " fill-opacity="1" fill-rule="nonzero"/></g><g clip-path="url(#60d24de5e3)"><path fill="#e57dff" d="M 4.996094 0.984375 L 5.246094 1.488281 L 5.804688 1.570312 L 5.398438 1.960938 L 5.496094 2.519531 L 4.996094 2.253906 L 4.496094 2.519531 L 4.59375 1.960938 L 4.191406 1.570312 L 4.746094 1.488281 L 4.996094 0.984375 " fill-opacity="1" fill-rule="nonzero"/></g></g></g></svg>